<?xml version="1.0" encoding="UTF-8"?><svg id="Layer_2" xmlns="http://www.w3.org/2000/svg" viewBox="0 0 297.65 30.11"><defs><style>.cls-1{fill:#fff;}.cls-2{fill:#cd1719;}.cls-3{fill:#706f6f;}</style></defs><g id="Layer_1-2"><rect class="cls-3" x="151.13" width="146.52" height="30.11" rx="1.27" ry="1.27"/><path class="cls-1" d="m169.7,7.22c1.05,0,1.96.12,2.72.37.77.25,1.4.59,1.9,1.03.5.44.87.97,1.11,1.58.24.61.36,1.29.36,2.02s-.13,1.46-.38,2.09c-.25.63-.63,1.18-1.14,1.63-.51.46-1.14.81-1.9,1.06-.76.25-1.65.38-2.67.38h-2.18v5.52h-2.92V7.22h5.1Zm0,7.89c.53,0,1-.07,1.4-.2.4-.13.73-.33.99-.58.26-.25.46-.55.59-.91.13-.36.2-.76.2-1.2s-.07-.8-.2-1.14c-.13-.34-.33-.63-.59-.87s-.59-.42-.99-.55c-.4-.13-.87-.19-1.41-.19h-2.18v5.63h2.18Z"/><path class="cls-1" d="m180.96,9.54v4.35h5.49v2.24h-5.49v4.44h6.96v2.33h-9.89V7.22h9.89v2.32h-6.96Z"/><path class="cls-1" d="m202.75,22.9h-2.64c-.5,0-.86-.2-1.08-.59l-3.3-5.02c-.12-.19-.26-.32-.41-.4-.15-.08-.37-.12-.66-.12h-1.25v6.13h-2.92V7.22h4.78c1.06,0,1.98.11,2.74.33.76.22,1.39.53,1.88.93.49.4.85.87,1.08,1.43.23.55.35,1.16.35,1.83,0,.53-.08,1.03-.23,1.5-.16.47-.38.9-.67,1.28s-.65.72-1.08,1.01c-.43.29-.92.52-1.47.68.19.11.36.24.52.38.16.15.3.32.43.53l3.93,5.79Zm-7.51-8.22c.55,0,1.03-.07,1.44-.21.41-.14.74-.33,1.01-.57.26-.24.46-.53.59-.86.13-.33.2-.7.2-1.1,0-.8-.26-1.41-.79-1.83-.52-.43-1.32-.64-2.4-.64h-1.87v5.21h1.82Z"/><path class="cls-1" d="m221.46,7.22v15.68h-2.57v-10.13c0-.41.02-.84.06-1.31l-4.74,8.91c-.22.43-.57.64-1.03.64h-.41c-.46,0-.81-.21-1.03-.64l-4.79-8.94c.02.24.04.47.05.71s.02.44.02.64v10.13h-2.57V7.22h2.2c.13,0,.24,0,.34.01.09,0,.18.03.26.05.08.03.14.08.21.14s.12.15.18.26l4.7,8.71c.12.23.24.47.34.72.1.25.21.5.31.76.1-.27.21-.53.31-.77.11-.25.22-.49.35-.72l4.63-8.69c.06-.11.12-.2.18-.26s.14-.11.21-.14c.08-.03.16-.05.26-.05.09,0,.21-.01.34-.01h2.2Z"/><path class="cls-1" d="m238.39,22.9h-2.26c-.25,0-.46-.06-.62-.19s-.28-.28-.36-.47l-1.17-3.2h-6.5l-1.17,3.2c-.06.17-.17.32-.34.46-.17.14-.37.21-.62.21h-2.28l6.17-15.68h2.97l6.16,15.68Zm-5.15-5.92l-1.91-5.22c-.09-.23-.19-.51-.29-.82-.1-.32-.2-.66-.3-1.03-.09.37-.19.71-.29,1.04-.1.32-.2.6-.29.84l-1.9,5.2h4.99Z"/><path class="cls-1" d="m253.24,7.22v15.68h-1.5c-.23,0-.43-.04-.58-.11s-.31-.2-.45-.38l-8.19-10.46c.04.48.07.92.07,1.32v9.63h-2.57V7.22h1.53c.12,0,.23,0,.32.02.09.01.17.03.24.07s.14.08.2.14c.07.06.14.14.22.24l8.22,10.5c-.02-.25-.04-.5-.05-.75-.02-.25-.02-.47-.02-.68V7.22h2.57Z"/><path class="cls-1" d="m267.68,9.61h-4.73v13.29h-2.92v-13.29h-4.73v-2.4h12.38v2.4Z"/><path class="cls-1" d="m284.18,15.06c0,1.15-.19,2.21-.57,3.19s-.92,1.83-1.61,2.54c-.69.72-1.53,1.27-2.51,1.68-.98.4-2.06.6-3.25.6s-2.27-.2-3.24-.6c-.98-.4-1.81-.96-2.51-1.68-.7-.72-1.24-1.56-1.62-2.54s-.57-2.05-.57-3.19.19-2.21.57-3.19.92-1.83,1.62-2.54c.7-.72,1.53-1.27,2.51-1.68s2.06-.6,3.24-.6c.8,0,1.54.09,2.24.28.7.18,1.35.44,1.93.78.59.34,1.11.74,1.58,1.23.47.48.86,1.02,1.19,1.61.33.59.57,1.24.74,1.93.17.69.26,1.42.26,2.19Zm-2.98,0c0-.86-.12-1.63-.35-2.32s-.56-1.26-.99-1.74c-.43-.48-.95-.84-1.56-1.1-.61-.25-1.3-.38-2.07-.38s-1.46.13-2.07.38c-.61.25-1.13.62-1.56,1.1-.43.48-.76,1.06-.99,1.74s-.35,1.46-.35,2.32.12,1.63.35,2.32.56,1.26.99,1.74c.43.47.95.84,1.56,1.09.61.25,1.3.38,2.07.38s1.45-.13,2.07-.38c.61-.25,1.13-.62,1.56-1.09.43-.47.76-1.05.99-1.74s.35-1.45.35-2.32Z"/><path class="cls-2" d="m0,28.77V1.35C0,.66.56.09,1.25.09h6.93c.69,0,1.25.56,1.25,1.25v27.42c0,.69-.56,1.25-1.25,1.25H1.25c-.69,0-1.25-.56-1.25-1.25Z"/><path class="cls-2" d="m23.52,30.03h-6.89c-.7,0-1.27-.57-1.27-1.27V1.37c0-.7.57-1.27,1.27-1.27h12.28c8.33,0,12.74,3.83,12.74,9.82,0,3.37-1.48,6.32-4.62,8.04-.64.35-.84,1.18-.45,1.79l5.37,8.32c.55.85-.06,1.96-1.07,1.96h-7.38c-.45,0-.87-.24-1.1-.63l-4.59-7.78c-.25-.42-.72-.67-1.21-.62l-.67.06c-.66.06-1.16.61-1.16,1.27v6.42c0,.7-.57,1.27-1.27,1.27Zm4.34-15.61c2.87-.29,4.02-1.39,4.02-3.83,0-2.2-1.29-3.3-4.69-3.3h-1.31c-.7,0-1.27.57-1.27,1.27v4.62c0,.71.58,1.28,1.29,1.27l1.96-.03Z"/><path class="cls-2" d="m54.91,30.03h-6.85c-.71,0-1.29-.58-1.29-1.29V1.39c0-.71.58-1.29,1.29-1.29h12.26c8.33,0,12.74,3.83,12.74,9.82,0,3.36-1.48,6.31-4.6,8.03-.65.36-.85,1.19-.45,1.81l5.34,8.27c.55.86-.06,1.99-1.08,1.99h-7.33c-.46,0-.88-.24-1.11-.64l-4.57-7.76c-.25-.43-.73-.68-1.23-.63l-.65.06c-.67.06-1.17.62-1.17,1.29v6.39c0,.71-.58,1.29-1.29,1.29Zm4.36-15.61c2.87-.29,4.02-1.39,4.02-3.83,0-2.2-1.29-3.3-4.69-3.3h-1.29c-.71,0-1.29.58-1.29,1.29v4.58c0,.72.59,1.3,1.31,1.29l1.95-.03Z"/><rect class="cls-3" x="78.17" y=".05" width="53.37" height="30.02" rx="1.28" ry="1.28"/><path class="cls-1" d="m96.42,10.84v13.88c0,.49-.4.89-.89.89h-4.86c-.49,0-.89-.4-.89-.89v-13.88c0-.49-.4-.89-.89-.89h-4.59c-.49,0-.89-.4-.89-.89v-3.65c0-.49.4-.89.89-.89h17.62c.49,0,.89.4.89.89v3.65c0,.49-.4.89-.89.89h-4.59c-.49,0-.89.4-.89.89Z"/><path class="cls-1" d="m119.08,25.61h-7.12c-.39,0-.74-.25-.86-.63l-6.23-19.28c-.19-.59.25-1.19.86-1.19h4.95c.41,0,.76.27.87.66l3.13,11.04c.25.88,1.5.88,1.75,0l3.13-11.04c.11-.39.47-.66.87-.66h4.98c.62,0,1.06.6.86,1.19l-6.32,19.28c-.12.37-.47.63-.86.63Z"/></g></svg>